<svg width="32" height="18" viewBox="0 0 32 18" fill="none" xmlns="http://www.w3.org/2000/svg">
<path d="M7.90283 15L7.12646 12.4512H3.22266L2.44629 15H0L3.7793 4.24805H6.55518L10.3491 15H7.90283ZM6.58447 10.5469L5.80811 8.05664C5.75928 7.89062 5.69336 7.67822 5.61035 7.41943C5.53223 7.15576 5.45166 6.88965 5.36865 6.62109C5.29053 6.34766 5.22705 6.11084 5.17822 5.91064C5.12939 6.11084 5.06104 6.35986 4.97314 6.65771C4.89014 6.95068 4.80957 7.229 4.73145 7.49268C4.65332 7.75635 4.59717 7.94434 4.56299 8.05664L3.79395 10.5469H6.58447ZM14.978 13.3667C15.2222 13.3667 15.459 13.3423 15.6885 13.2935C15.9229 13.2446 16.1548 13.1836 16.3843 13.1104V14.7729C16.145 14.8804 15.8472 14.9683 15.4907 15.0366C15.1392 15.1099 14.7534 15.1465 14.3335 15.1465C13.8452 15.1465 13.4058 15.0684 13.0151 14.9121C12.6294 14.751 12.3242 14.4751 12.0996 14.0845C11.8799 13.689 11.77 13.1396 11.77 12.4365V8.48877H10.7007V7.54395L11.9312 6.79688L12.5757 5.06836H14.0039V6.81152H16.2964V8.48877H14.0039V12.4365C14.0039 12.749 14.0918 12.9834 14.2676 13.1396C14.4482 13.291 14.6851 13.3667 14.978 13.3667ZM20.2808 3.60352V5.92529C20.2808 6.33057 20.2661 6.71631 20.2368 7.08252C20.2124 7.44873 20.1929 7.70752 20.1782 7.85889H20.2954C20.4712 7.57568 20.6787 7.34619 20.918 7.17041C21.1621 6.99463 21.4307 6.86523 21.7236 6.78223C22.0166 6.69922 22.3315 6.65771 22.6685 6.65771C23.2593 6.65771 23.7744 6.7627 24.2139 6.97266C24.6533 7.17773 24.9951 7.50244 25.2393 7.94678C25.4834 8.38623 25.6055 8.95752 25.6055 9.66064V15H23.3716V10.2173C23.3716 9.63135 23.2642 9.18945 23.0493 8.8916C22.8345 8.59375 22.5024 8.44482 22.0532 8.44482C21.604 8.44482 21.25 8.5498 20.9912 8.75977C20.7324 8.96484 20.5493 9.27002 20.4419 9.67529C20.3345 10.0757 20.2808 10.5664 20.2808 11.1475V15H18.0469V3.60352H20.2808ZM30.1392 6.81152V15H27.9053V6.81152H30.1392ZM29.0259 3.60352C29.3579 3.60352 29.6436 3.68164 29.8828 3.83789C30.1221 3.98926 30.2417 4.2749 30.2417 4.69482C30.2417 5.10986 30.1221 5.39795 29.8828 5.55908C29.6436 5.71533 29.3579 5.79346 29.0259 5.79346C28.689 5.79346 28.4009 5.71533 28.1616 5.55908C27.9272 5.39795 27.8101 5.10986 27.8101 4.69482C27.8101 4.2749 27.9272 3.98926 28.1616 3.83789C28.4009 3.68164 28.689 3.60352 29.0259 3.60352Z" fill="#F5F5F5"/>
</svg>
